<?xml version="1.0" encoding="UTF-8" standalone="no"?>
<!-- Created with Inkscape (http://www.inkscape.org/) -->

<svg
   width="1024"
   height="1024"
   viewBox="0 0 270.93333 270.93333"
   version="1.1"
   id="svg1"
   inkscape:version="1.3 (0e150ed6c4, 2023-07-21)"
   sodipodi:docname="hdg_bug.svg"
   inkscape:export-filename="hdg_bug_1024x1024.png"
   inkscape:export-xdpi="96"
   inkscape:export-ydpi="96"
   xmlns:inkscape="http://www.inkscape.org/namespaces/inkscape"
   xmlns:sodipodi="http://sodipodi.sourceforge.net/DTD/sodipodi-0.dtd"
   xmlns="http://www.w3.org/2000/svg"
   xmlns:svg="http://www.w3.org/2000/svg">
  <sodipodi:namedview
     id="namedview1"
     pagecolor="#000000"
     bordercolor="#000000"
     borderopacity="0.25"
     inkscape:showpageshadow="2"
     inkscape:pageopacity="0.0"
     inkscape:pagecheckerboard="0"
     inkscape:deskcolor="#d1d1d1"
     inkscape:document-units="mm"
     inkscape:zoom="0.94252245"
     inkscape:cx="480.09467"
     inkscape:cy="509.27169"
     inkscape:window-width="2560"
     inkscape:window-height="1316"
     inkscape:window-x="2548"
     inkscape:window-y="-12"
     inkscape:window-maximized="1"
     inkscape:current-layer="layer1" />
  <defs
     id="defs1" />
  <g
     inkscape:label="Layer 1"
     inkscape:groupmode="layer"
     id="layer1">
    <path
       style="display:inline;fill:#00ffff;stroke-width:0.0304478"
       d="m 147.74101,12.424822 c 0.1425,-0.03475 0.15724,-0.05133 0.19278,-0.217086 0.0229,-0.10699 0.0329,-1.945783 0.0329,-6.0718644 V 0.21747045 l -0.10255,-0.10873523 c -0.18214,-0.19313039 -0.18161,-0.19347039 -0.9716,0.61340126 -0.97039,0.99111702 -5.29359,5.35523002 -8.62988,8.71154942 l -2.76432,2.7808701 -3.95967,-3.9683296 C 129.3609,6.063644 126.6246,3.3153698 125.45804,2.1389494 123.86759,0.5350211 123.31944,0 123.26662,0 c -0.0388,0 -0.12208,0.04255009 -0.1852,0.0946052 l -0.11477,0.09460019 0.009,6.03298891 c 0.005,3.3255425 0.0207,6.0572767 0.0353,6.0871117 0.0145,0.0298 0.0556,0.07088 0.0914,0.09135 0.0508,0.02915 2.72443,0.0383 12.30488,0.04215 6.73197,0.003 12.28225,-0.0054 12.33395,-0.01795 z"
       id="path8" />
  </g>
</svg>
